<svg xmlns="http://www.w3.org/2000/svg" width="124" height="24" style=""><rect id="backgroundrect" width="100%" height="100%" x="0" y="0" fill="none" stroke="#243d37" class="" style="" stroke-opacity="1"/><g class="currentLayer" style=""><title>Layer 1</title><path d="M5.857,18.708 c1.6380000000000001,0 2.995,-0.36000000000000004 4.07,-1.08 c1.075,-0.7210000000000001 1.613,-1.7690000000000001 1.613,-3.144 c-0.08300000000000002,-1.855 -1.464,-3.246 -4.144,-4.173 l-1.44,-0.5970000000000001 c-0.31400000000000006,-0.1 -0.538,-0.19800000000000004 -0.6700000000000002,-0.29800000000000004 a0.45,0.45 0 0 1 -0.19800000000000004,-0.37300000000000005 c0,-0.41400000000000003 0.273,-0.6200000000000001 0.8190000000000001,-0.6200000000000001 c0.6780000000000002,0 1.182,0.3470000000000001 1.513,1.043 l3.6980000000000004,-1.044 c-0.8930000000000001,-2.22 -2.614,-3.329 -5.162,-3.329 c-1.522,0 -2.7880000000000003,0.3980000000000001 -3.797,1.193 C1.15,7.08 0.6450000000000001,8.116 0.6450000000000001,9.39 c0,0.3980000000000001 0.05800000000000001,0.7660000000000001 0.17400000000000002,1.106 c0.11600000000000002,0.3400000000000001 0.29000000000000004,0.6380000000000001 0.521,0.8940000000000001 c0.232,0.257 0.455,0.48000000000000004 0.6700000000000002,0.6710000000000002 c0.21500000000000002,0.19000000000000003 0.48800000000000004,0.36900000000000005 0.8200000000000001,0.534 c0.33000000000000007,0.16600000000000004 0.5820000000000001,0.28600000000000003 0.7560000000000001,0.36000000000000004 c0.17400000000000002,0.07500000000000001 0.41000000000000003,0.16200000000000003 0.7070000000000001,0.261 l0.42200000000000004,0.15000000000000002 l1.49,0.546 c0.36300000000000004,0.133 0.6000000000000001,0.24400000000000002 0.7070000000000001,0.3350000000000001 a0.44900000000000007,0.44900000000000007 0 0 1 0.16000000000000003,0.36000000000000004 c0,0.43100000000000005 -0.404,0.6470000000000001 -1.215,0.6470000000000001 c-1.191,0 -1.903,-0.53 -2.134,-1.59 L0,14.509 c0.463,2.8 2.416,4.2 5.857,4.2 zm11.636,0 c1.6380000000000001,0 2.845,-0.6300000000000001 3.623,-1.8880000000000001 v1.6150000000000002 h5.112 V5.366 h-5.112 v7.156 c0,1.474 -0.505,2.21 -1.514,2.21 c-1.026,0 -1.5390000000000001,-0.7360000000000001 -1.5390000000000001,-2.21 V5.366 h-5.112 v7.6530000000000005 c0,3.793 1.514,5.69 4.542,5.69 zm16.103,-0.273 V11.28 c0,-1.475 0.504,-2.212 1.513,-2.212 c1.026,0 1.54,0.7370000000000001 1.54,2.212 v7.155 h5.111 v-7.652 c0,-3.793 -1.513,-5.69 -4.541,-5.69 c-1.6380000000000001,0 -2.846,0.6300000000000001 -3.623,1.8880000000000001 V5.366 h-5.113 v13.069 h5.113 zm15.383000000000001,0 V11.28 c0,-1.475 0.504,-2.212 1.514,-2.212 c1.025,0 1.538,0.7370000000000001 1.538,2.212 v7.155 h5.113 v-7.652 c0,-3.793 -1.514,-5.69 -4.542,-5.69 c-1.6380000000000001,0 -2.846,0.6300000000000001 -3.623,1.8880000000000001 V5.366 h-5.113 v13.069 h5.113 zM64.958,24 l8.289,-18.634 H67.91 l-2.532,6.684 l-2.258,-6.684 h-5.584 l5.4350000000000005,11.802 L59.944,24 h5.014 zm13.67,-5.292 c1.6380000000000001,0 2.995,-0.36000000000000004 4.07,-1.08 c1.076,-0.7210000000000001 1.614,-1.7690000000000001 1.614,-3.144 c-0.08300000000000002,-1.855 -1.465,-3.246 -4.145,-4.173 l-1.44,-0.5970000000000001 c-0.31400000000000006,-0.1 -0.537,-0.19800000000000004 -0.6700000000000002,-0.29800000000000004 a0.45,0.45 0 0 1 -0.19800000000000004,-0.37300000000000005 c0,-0.41400000000000003 0.273,-0.6200000000000001 0.8190000000000001,-0.6200000000000001 c0.6780000000000002,0 1.183,0.3470000000000001 1.514,1.043 l3.6980000000000004,-1.044 c-0.8940000000000001,-2.22 -2.614,-3.329 -5.162,-3.329 c-1.522,0 -2.7880000000000003,0.3980000000000001 -3.797,1.193 c-1.01,0.795 -1.514,1.83 -1.514,3.105 c0,0.3980000000000001 0.05800000000000001,0.7660000000000001 0.17300000000000001,1.106 c0.11600000000000002,0.3400000000000001 0.29000000000000004,0.6380000000000001 0.522,0.8940000000000001 c0.231,0.257 0.455,0.48000000000000004 0.6700000000000002,0.6710000000000002 c0.21500000000000002,0.19000000000000003 0.48800000000000004,0.36900000000000005 0.8190000000000001,0.534 c0.33000000000000007,0.16600000000000004 0.5830000000000001,0.28600000000000003 0.7570000000000001,0.36000000000000004 c0.17300000000000001,0.07500000000000001 0.41000000000000003,0.16200000000000003 0.7070000000000001,0.261 l0.42200000000000004,0.15000000000000002 l1.489,0.546 c0.36400000000000005,0.133 0.6000000000000001,0.24400000000000002 0.7070000000000001,0.3350000000000001 a0.44900000000000007,0.44900000000000007 0 0 1 0.16100000000000003,0.36000000000000004 c0,0.43100000000000005 -0.405,0.6470000000000001 -1.216,0.6470000000000001 c-1.19,0 -1.9020000000000001,-0.53 -2.134,-1.59 l-3.723,0.8440000000000001 c0.464,2.8 2.416,4.2 5.857,4.2 zm9.8,-14.137 c0.91,0 1.613,-0.21500000000000002 2.11,-0.6460000000000001 c0.49500000000000005,-0.43000000000000005 0.7440000000000001,-0.977 0.7440000000000001,-1.6400000000000001 c0,-0.6780000000000002 -0.24000000000000002,-1.23 -0.7200000000000001,-1.6510000000000002 C90.082,0.21000000000000002 89.371,0 88.428,0 c-0.9430000000000001,0 -1.6550000000000002,0.21100000000000002 -2.135,0.6340000000000001 c-0.48000000000000004,0.42200000000000004 -0.7200000000000001,0.973 -0.7200000000000001,1.6520000000000001 c0,0.6620000000000001 0.24900000000000003,1.209 0.7450000000000001,1.6400000000000001 c0.49700000000000005,0.43000000000000005 1.2,0.6450000000000001 2.11,0.6450000000000001 zm2.556,13.864 V5.366 H85.87 v13.069 h5.113 zm7.74,0.273 c1.737,0 2.977,-0.6300000000000001 3.722,-1.8880000000000001 v1.6150000000000002 h5.112 V0.47200000000000003 h-5.112 v6.534 c-0.7450000000000001,-1.275 -1.9849999999999999,-1.913 -3.723,-1.913 c-1.7530000000000001,0 -3.214,0.6420000000000001 -4.38,1.9260000000000002 c-1.166,1.283 -1.75,2.91 -1.75,4.882 c0,1.97 0.5840000000000001,3.598 1.75,4.882 c1.166,1.283 2.6270000000000002,1.925 4.38,1.925 zm1.3900000000000001,-3.9 c-0.7290000000000001,0 -1.312,-0.274 -1.75,-0.8200000000000001 c-0.43900000000000006,-0.547 -0.6580000000000001,-1.243 -0.6580000000000001,-2.087 c0,-0.8450000000000001 0.21500000000000002,-1.54 0.6450000000000001,-2.087 c0.44700000000000006,-0.547 1.034,-0.8200000000000001 1.762,-0.8200000000000001 s1.311,0.273 1.75,0.8200000000000001 c0.43800000000000006,0.546 0.6570000000000001,1.242 0.6570000000000001,2.087 c0,0.8440000000000001 -0.21900000000000003,1.54 -0.6570000000000001,2.087 c-0.43900000000000006,0.546 -1.022,0.8200000000000001 -1.75,0.8200000000000001 zm16.698,3.9 c2.597,0 4.6240000000000006,-0.7540000000000001 6.08,-2.26 l-2.11,-2.833 c-1.042,0.8450000000000001 -2.217,1.267 -3.524,1.267 c-0.992,0 -1.799,-0.22400000000000003 -2.42,-0.6700000000000002 c-0.6200000000000001,-0.44800000000000006 -0.93,-0.8790000000000001 -0.93,-1.2930000000000001 h9.604 c0.08300000000000002,-0.29800000000000004 0.12400000000000001,-0.6870000000000002 0.12400000000000001,-1.167 c0,-2.054 -0.6740000000000002,-3.677 -2.022,-4.87 c-1.3490000000000002,-1.193 -3.073,-1.7890000000000001 -5.175,-1.7890000000000001 c-2.25,0 -4.028,0.6710000000000002 -5.335,2.013 c-1.307,1.3410000000000002 -1.961,2.956 -1.961,4.844 c0,1.9380000000000002 0.6900000000000002,3.549 2.072,4.833 c1.3820000000000001,1.283 3.247,1.925 5.597,1.925 zm2.208,-8.149000000000001 h-5.112 c0.03300000000000001,-0.6130000000000001 0.29800000000000004,-1.08 0.794,-1.404 c0.49600000000000005,-0.32300000000000006 1.084,-0.48400000000000004 1.762,-0.48400000000000004 c0.6780000000000002,0 1.266,0.16500000000000004 1.762,0.49700000000000005 c0.49700000000000005,0.33100000000000007 0.7610000000000001,0.795 0.794,1.391 z" fill="#FFF" fill-rule="nonzero" id="svg_1" class=""/></g></svg>